<svg width="96" height="96" viewBox="0 0 96 96" fill="none" xmlns="http://www.w3.org/2000/svg">
  <!-- Logo Omar Godoy - Camión con iniciales OG -->
  <rect width="96" height="96" rx="20" fill="#1a3a52"/>
  <g fill="#f5f5f0">
    <!-- Camión simplificado -->
    <path d="M16 48c0-3.3 2.7-6 6-6h14c3.3 0 6 2.7 6 6v4h3a4 4 0 0 1 4 4v3h-4a6 6 0 1 1-12 0H25a6 6 0 1 1-12 0h-3v-6c0-2.8 2.2-5 5-5h1v-4z" opacity=".95"/>
    <circle cx="19" cy="59" r="3.5"/>
    <circle cx="39" cy="59" r="3.5"/>
    <!-- Parabrisas -->
    <rect x="23" y="44" width="12" height="8" rx="1" fill="#4a90e2" opacity="0.5"/>
  </g>
  <!-- Texto OG -->
  <text x="48" y="82" font-family="Arial, sans-serif" font-size="26" font-weight="bold" fill="#f5f5f0" text-anchor="middle">OG</text>
</svg>
